<?xml version="1.0"?>
<svg width="12" height="12" xmlns="http://www.w3.org/2000/svg" xmlns:svg="http://www.w3.org/2000/svg">

 <g class="layer">
  <title>Layer 1</title>
  <path d="m6,0a6,6 0 1 1 -6,6a0.5,0.5 0 0 1 1,0a5,5 0 1 0 5,-5c-1.24,0 -2.33,0.42 -3.36,1.44l0.71,0.71a0.5,0.5 0 0 1 -0.35,0.85l-2,0a0.5,0.5 0 0 1 -0.5,-0.5l0,-2a0.5,0.5 0 0 1 0.85,-0.35l0.59,0.58c1.21,-1.21 2.56,-1.73 4.06,-1.73zm-0.5,3a0.5,0.5 0 0 1 0.49,0.41l0.01,0.09l0,2.79l1.85,1.86a0.5,0.5 0 0 1 0.06,0.63l-0.06,0.07a0.5,0.5 0 0 1 -0.63,0.06l-0.07,-0.06l-2,-2a0.5,0.5 0 0 1 -0.14,-0.27l-0.01,-0.08l0,-3a0.5,0.5 0 0 1 0.5,-0.5z" fill="#ffffff" id="svg_1"/>
 </g>
</svg>