<?xml version="1.0"?>
<svg width="50" height="50" xmlns="http://www.w3.org/2000/svg" xmlns:svg="http://www.w3.org/2000/svg" enable-background="new 0 0 478.2 478.2" version="1.1" xml:space="preserve">
 <g class="layer">
  <title>Layer 1</title>
  <g id="svg_1">
   <path d="m13.52,23.5l4.37,-4.35l-4.37,-4.14l1.39,-1.38l5.76,5.52l-5.76,5.73l-1.39,-1.38zm0.6,12.05l0,1.97c0,0 3.96,-3.94 10.91,-3.94c6.95,0 10.91,3.94 10.91,3.94l0,-1.97c0,0 -3.96,-3.94 -10.91,-3.94c-6.95,0 -10.91,3.94 -10.91,3.94zm21.03,-21.92l-5.76,5.52l5.76,5.73l1.39,-1.38l-4.37,-4.35l4.37,-4.14l-1.39,-1.38zm14.69,11.06c0,13.63 -11.11,24.69 -24.8,24.69c-13.69,0 -24.8,-11.06 -24.8,-24.69c0,-13.63 11.11,-24.69 24.8,-24.69c13.68,0 24.8,11.06 24.8,24.69zm-1.99,0c0,-12.64 -10.11,-22.7 -22.81,-22.7c-12.7,0 -22.81,10.07 -22.81,22.7c0,12.64 10.11,22.7 22.81,22.7c12.7,0 22.81,-10.07 22.81,-22.7z" fill="#000000" id="svg_2"/>
  </g>
  <g id="svg_3"/>
  <g id="svg_4"/>
  <g id="svg_5"/>
  <g id="svg_6"/>
  <g id="svg_7"/>
  <g id="svg_8"/>
  <g id="svg_9"/>
  <g id="svg_10"/>
  <g id="svg_11"/>
  <g id="svg_12"/>
  <g id="svg_13"/>
  <g id="svg_14"/>
  <g id="svg_15"/>
  <g id="svg_16"/>
  <g id="svg_17"/>
 </g>

</svg>